<?xml version="1.0" standalone="no"?>
<!DOCTYPE svg PUBLIC "-//W3C//DTD SVG 20010904//EN"
 "http://www.w3.org/TR/2001/REC-SVG-20010904/DTD/svg10.dtd">
<svg version="1.0" xmlns="http://www.w3.org/2000/svg"
 width="400.000000pt" height="400.000000pt" viewBox="0 0 400.000000 400.000000"
 preserveAspectRatio="xMidYMid meet">
<metadata>
Created by potrace 1.14, written by Peter Selinger 2001-2017
</metadata>
<g transform="translate(0.000000,400.000000) scale(0.100000,-0.100000)"
fill="#000000" stroke="none">
<path d="M1840 3830 c-228 -30 -496 -138 -721 -289 -347 -233 -554 -469 -599
-682 -9 -42 -25 -78 -47 -108 -82 -107 -108 -193 -107 -346 2 -169 45 -340
108 -430 17 -25 21 -46 22 -120 2 -110 22 -190 77 -302 60 -123 140 -208 210
-222 25 -5 32 -14 43 -51 8 -25 14 -45 14 -45 0 0 -20 0 -45 0 -57 0 -83 -24
-91 -88 -9 -65 33 -195 85 -263 l38 -49 -84 -78 c-68 -65 -85 -87 -97 -128
-23 -77 -4 -139 55 -175 8 -5 22 -27 30 -49 11 -32 24 -45 60 -62 34 -16 54
-35 74 -70 39 -67 53 -81 89 -89 17 -3 45 -17 63 -30 26 -20 43 -24 103 -24
42 0 82 6 99 14 34 18 81 70 116 131 30 50 32 51 62 30 37 -26 268 -77 448
-100 28 -3 118 -10 200 -14 l150 -9 133 50 c73 27 187 72 253 99 l119 51 0 48
c0 36 -5 52 -17 59 -13 8 3 10 64 11 l82 0 3 -29 3 -29 180 76 c99 43 186 81
193 85 35 23 -7 123 -69 164 -23 15 -59 29 -82 32 -36 5 -44 12 -70 56 -16 28
-40 62 -54 76 -31 34 -110 59 -184 59 l-60 0 72 61 c134 115 219 263 254 437
6 27 10 32 27 26 31 -10 90 60 118 142 21 59 24 89 25 204 1 117 4 141 23 177
59 114 91 350 72 536 -10 107 -37 241 -59 300 -6 15 -7 27 -3 27 5 0 42 -11
82 -25 40 -14 75 -23 77 -21 8 7 -38 89 -100 179 -89 131 -195 247 -294 321
-186 140 -528 276 -694 276 -21 0 -39 4 -39 9 0 13 104 62 173 80 32 9 58 21
58 26 0 16 -61 43 -145 65 -90 23 -386 35 -496 20z m237 -1486 c22 -6 22 -6
-9 -53 -17 -25 -33 -48 -35 -50 -4 -5 -161 72 -188 93 -18 14 -10 15 95 16 63
0 125 -3 137 -6z m443 -30 c150 -22 177 -30 225 -75 66 -61 108 -208 131 -456
3 -40 10 -73 14 -73 4 0 16 21 27 48 l20 47 7 -73 c13 -130 -16 -296 -68 -401
-97 -191 -330 -364 -602 -447 -349 -106 -770 -94 -1039 30 -91 42 -195 115
-234 164 -76 97 -133 252 -162 442 -18 114 -20 164 -16 325 6 177 30 455 42
475 4 6 75 -13 94 -26 1 -2 -9 -15 -24 -31 -25 -26 -65 -94 -65 -109 0 -4 9 5
21 20 12 15 47 44 79 65 l58 39 79 -18 c43 -10 134 -28 203 -40 128 -23 175
-42 253 -102 45 -36 47 -29 8 21 l-30 37 187 0 c214 -1 274 4 321 29 26 13 31
19 20 26 -16 9 -16 10 56 69 l50 41 120 -6 c66 -3 167 -13 225 -21z m541 -225
c65 -70 86 -275 41 -414 -25 -78 -47 -114 -61 -99 -5 5 -14 79 -20 164 -6 85
-18 177 -26 204 -11 35 -12 59 -6 85 5 20 12 48 15 64 8 35 21 34 57 -4z
m-2443 -146 c11 -10 35 -61 52 -113 17 -52 44 -119 61 -147 17 -32 29 -68 29
-90 0 -21 9 -76 19 -123 11 -47 18 -86 16 -88 -1 -2 -30 23 -64 54 -68 63
-127 168 -156 279 -27 104 -19 245 14 245 5 0 18 -8 29 -17z m206 -752 c32
-13 69 -77 105 -182 15 -46 38 -103 50 -126 28 -56 27 -60 -11 -28 -23 20 -38
25 -57 21 -14 -4 -32 -8 -40 -9 -22 -3 -77 75 -100 144 -27 79 -28 164 -3 178
22 13 25 13 56 2z m181 -211 c28 -31 163 -115 230 -143 85 -35 187 -65 280
-80 l80 -14 -46 -20 c-42 -19 -48 -25 -54 -62 -4 -23 -4 -58 -1 -78 6 -35 4
-40 -29 -62 -35 -24 -95 -104 -95 -128 0 -7 -4 -13 -10 -13 -5 0 -10 6 -10 13
0 8 -11 24 -25 37 -17 16 -25 34 -25 56 0 25 -12 45 -50 87 -27 30 -50 64 -50
75 0 11 -24 47 -52 80 -71 81 -150 196 -165 238 -13 38 -5 44 22 14z m1407
-257 l-5 -126 -64 -79 c-34 -43 -63 -81 -63 -83 0 -11 12 -3 35 21 l25 27 0
-27 c0 -23 4 -26 38 -28 l37 -1 -37 -4 -38 -4 0 -58 c0 -72 18 -93 50 -61 23
23 34 22 25 -2 -9 -24 -53 -40 -76 -28 -16 9 -19 22 -19 80 0 68 -1 70 -24 70
-14 0 -28 -5 -31 -11 -4 -5 -17 -14 -30 -19 -17 -7 -22 -14 -18 -30 8 -31 -15
-77 -46 -90 -53 -22 -101 15 -101 79 0 19 -6 31 -16 33 -9 2 -25 23 -35 48
l-18 45 0 -103 c-1 -63 -5 -102 -11 -100 -5 2 -29 44 -54 93 l-45 90 0 -80
c-1 -51 4 -86 11 -93 9 -9 4 -12 -22 -12 -29 1 -32 2 -17 11 14 8 17 25 17
104 0 79 -3 96 -17 104 -15 9 -14 10 9 11 25 0 32 -9 67 -77 l40 -78 1 73 c0
51 -4 72 -12 73 -7 0 -2 5 11 10 23 9 24 11 17 97 -3 48 -9 101 -12 118 l-6
31 73 7 c102 10 312 65 365 95 1 1 -1 -56 -4 -126z m-1447 85 c19 -13 35 -27
35 -31 0 -4 -24 -38 -53 -75 -69 -86 -120 -162 -114 -168 6 -7 145 129 180
175 l25 35 41 -27 c22 -15 48 -38 57 -52 19 -29 21 -25 -74 -139 -35 -42 -60
-76 -57 -76 10 0 84 58 132 103 l41 40 34 -38 c54 -61 54 -59 -10 -138 -32
-39 -62 -78 -66 -85 -15 -25 28 4 87 58 l55 50 24 -33 c39 -52 40 -54 17 -99
-50 -97 -84 -123 -184 -134 -46 -6 -57 -3 -91 20 -22 15 -55 31 -74 36 -29 8
-40 20 -65 67 -25 47 -39 62 -77 80 -36 18 -49 31 -58 57 -6 20 -28 49 -51 67
-28 22 -39 38 -39 57 0 53 20 98 62 138 67 64 157 134 174 134 8 0 30 -10 49
-22z"/>
<path d="M2352 2275 c-29 -13 -66 -33 -81 -45 -46 -32 -131 -169 -151 -241
l-9 -34 17 25 c9 14 42 51 73 84 l56 59 -5 -86 c-6 -109 20 -203 74 -265 62
-73 120 -90 182 -52 95 58 100 265 12 440 -21 42 -26 60 -17 60 21 0 107 -65
128 -97 23 -35 25 -130 5 -218 -8 -33 -13 -61 -12 -63 2 -1 18 28 37 64 28 57
33 77 33 138 1 151 -96 256 -234 255 -36 0 -73 -8 -108 -24z m5 -162 c-7 -85
-43 -217 -57 -208 -22 14 -41 204 -22 230 10 15 65 54 76 55 5 0 6 -34 3 -77z
m179 -255 c-4 -23 -9 -44 -11 -47 -6 -5 -55 39 -55 50 0 15 32 39 52 39 19 0
20 -4 14 -42z"/>
<path d="M1030 2095 c-26 -8 -57 -26 -70 -41 -22 -22 -25 -35 -25 -97 0 -90
38 -177 109 -252 31 -32 42 -40 31 -22 -49 83 -89 232 -80 294 6 39 10 44 44
54 20 6 47 9 60 7 21 -3 23 -8 26 -83 6 -147 48 -260 118 -320 44 -38 81 -48
129 -34 43 11 61 30 89 94 26 58 22 129 -10 195 -12 24 -19 45 -18 47 2 2 32
-23 67 -55 l64 -57 -30 54 c-66 123 -152 187 -289 216 -86 18 -156 18 -215 0z
m232 -74 c16 -14 -51 -201 -71 -201 -9 0 -51 165 -51 199 0 22 2 23 58 16 31
-4 60 -10 64 -14z m170 -256 c-9 -69 -20 -79 -54 -48 -35 31 -14 76 32 71 19
-2 24 -8 22 -23z"/>
<path d="M2515 1470 c-3 -6 -4 -18 0 -28 4 -14 -11 -34 -53 -75 -101 -95 -280
-201 -469 -276 -84 -34 -98 -51 -40 -51 127 0 412 143 562 282 50 46 64 54 79
46 9 -5 20 -7 24 -3 12 11 7 82 -7 99 -15 18 -86 22 -96 6z"/>
<path d="M2138 373 c-33 -4 -38 -8 -38 -29 0 -57 40 -83 74 -48 16 15 23 86 9
82 -5 -1 -25 -3 -45 -5z"/>
<path d="M353 3250 c-33 -85 -46 -171 -41 -265 5 -98 19 -120 100 -161 81 -41
92 -30 50 51 -46 91 -75 202 -81 315 l-6 115 -22 -55z"/>
<path d="M2727 483 c-11 -10 -8 -83 3 -83 7 0 58 21 88 36 1 1 -2 13 -7 28 -9
21 -17 26 -44 26 -19 0 -37 -3 -40 -7z"/>
</g>
</svg>
